<svg width="17" height="16" viewBox="0 0 17 16" fill="none" xmlns="http://www.w3.org/2000/svg">
<rect width="16" height="16" transform="translate(0.910034)" fill="white"/>
<path d="M4.91003 5.33333C4.91003 4.27246 5.33146 3.25505 6.08161 2.5049C6.83175 1.75476 7.84917 1.33333 8.91003 1.33333C9.9709 1.33333 10.9883 1.75476 11.7385 2.5049C12.4886 3.25505 12.91 4.27246 12.91 5.33333C12.91 10 14.91 11.3333 14.91 11.3333H2.91003C2.91003 11.3333 4.91003 10 4.91003 5.33333Z" stroke="#020817" stroke-width="1.33333" stroke-linecap="round" stroke-linejoin="round"/>
<path d="M7.7767 14C7.88829 14.203 8.05234 14.3722 8.2517 14.4901C8.45106 14.608 8.67842 14.6702 8.91004 14.6702C9.14165 14.6702 9.36901 14.608 9.56838 14.4901C9.76774 14.3722 9.93178 14.203 10.0434 14" stroke="#020817" stroke-width="1.33333" stroke-linecap="round" stroke-linejoin="round"/>
</svg>
