<svg width="13" height="12" viewBox="0 0 13 12" fill="none" xmlns="http://www.w3.org/2000/svg">
<path d="M6.75 1.5C6.15326 2.09674 5.81802 2.90609 5.81802 3.75C5.81802 4.59391 6.15326 5.40326 6.75 6C7.34674 6.59674 8.15609 6.93198 9 6.93198C9.84392 6.93198 10.6533 6.59674 11.25 6C11.25 6.89002 10.9861 7.76004 10.4916 8.50007C9.99715 9.24009 9.29434 9.81686 8.47208 10.1575C7.64981 10.4981 6.74501 10.5872 5.8721 10.4135C4.99918 10.2399 4.19736 9.81132 3.56802 9.18198C2.93869 8.55264 2.5101 7.75082 2.33647 6.87791C2.16283 6.00499 2.25195 5.10019 2.59254 4.27792C2.93314 3.45566 3.50991 2.75285 4.24994 2.25839C4.98996 1.76392 5.85999 1.5 6.75 1.5Z" stroke="#64748B" stroke-linecap="round" stroke-linejoin="round"/>
</svg>
