<svg width="17" height="16" viewBox="0 0 17 16" fill="none" xmlns="http://www.w3.org/2000/svg">
<path d="M9.76665 2.66667H6.43332L4.76665 4.66667H2.76665C2.41303 4.66667 2.07389 4.80715 1.82384 5.0572C1.57379 5.30724 1.43332 5.64638 1.43332 6.00001V12C1.43332 12.3536 1.57379 12.6928 1.82384 12.9428C2.07389 13.1929 2.41303 13.3333 2.76665 13.3333H13.4333C13.7869 13.3333 14.1261 13.1929 14.3761 12.9428C14.6262 12.6928 14.7667 12.3536 14.7667 12V6.00001C14.7667 5.64638 14.6262 5.30724 14.3761 5.0572C14.1261 4.80715 13.7869 4.66667 13.4333 4.66667H11.4333L9.76665 2.66667Z" stroke="#020817" stroke-width="1.33333" stroke-linecap="round" stroke-linejoin="round"/>
<path d="M8.09998 10.6667C9.20455 10.6667 10.1 9.77123 10.1 8.66666C10.1 7.56209 9.20455 6.66666 8.09998 6.66666C6.99541 6.66666 6.09998 7.56209 6.09998 8.66666C6.09998 9.77123 6.99541 10.6667 8.09998 10.6667Z" stroke="#020817" stroke-width="1.33333" stroke-linecap="round" stroke-linejoin="round"/>
</svg>
