<svg width="16" height="16" viewBox="0 0 17 16" fill="none" xmlns="http://www.w3.org/2000/svg">
<path d="M15.0467 8H13.3933C13.102 7.99937 12.8184 8.0942 12.5861 8.26997C12.3537 8.44575 12.1853 8.69279 12.1067 8.97333L10.54 14.5467C10.5299 14.5813 10.5088 14.6117 10.48 14.6333C10.4512 14.655 10.4161 14.6667 10.38 14.6667C10.3439 14.6667 10.3088 14.655 10.28 14.6333C10.2512 14.6117 10.2301 14.5813 10.22 14.5467L6.54 1.45333C6.5299 1.41871 6.50885 1.3883 6.48 1.36666C6.45115 1.34502 6.41606 1.33333 6.38 1.33333C6.34394 1.33333 6.30885 1.34502 6.28 1.36666C6.25115 1.3883 6.2301 1.41871 6.22 1.45333L4.65333 7.02666C4.57498 7.3061 4.40759 7.55234 4.17658 7.728C3.94556 7.90367 3.66355 7.99916 3.37333 8H1.71333" stroke-width="1.33333" stroke-linecap="round" stroke-linejoin="round"/>
</svg>
