<svg width="17" height="16" viewBox="0 0 17 16" fill="none" xmlns="http://www.w3.org/2000/svg">
<path d="M6.88 8H6.88667" stroke="#020817" stroke-width="1.33333" stroke-linecap="round" stroke-linejoin="round"/>
<path d="M10.88 8H10.8867" stroke="#020817" stroke-width="1.33333" stroke-linecap="round" stroke-linejoin="round"/>
<path d="M7.54666 10.6667C7.87999 10.8667 8.34666 11 8.87999 11C9.41333 11 9.87999 10.8667 10.2133 10.6667" stroke="#020817" stroke-width="1.33333" stroke-linecap="round" stroke-linejoin="round"/>
<path d="M13.5467 4.2C14.1507 4.95711 14.5624 5.84918 14.7467 6.8C14.9721 6.90918 15.1622 7.07965 15.2952 7.29188C15.4283 7.50411 15.4988 7.74952 15.4988 8C15.4988 8.25048 15.4283 8.49589 15.2952 8.70812C15.1622 8.92035 14.9721 9.09082 14.7467 9.2C14.4589 10.5423 13.7195 11.7454 12.6518 12.6084C11.5842 13.4714 10.2528 13.9421 8.88001 13.9421C7.50719 13.9421 6.17587 13.4714 5.10822 12.6084C4.04057 11.7454 3.30115 10.5423 3.01335 9.2C2.78792 9.09082 2.5978 8.92035 2.46478 8.70812C2.33175 8.49589 2.2612 8.25048 2.2612 8C2.2612 7.74952 2.33175 7.50411 2.46478 7.29188C2.5978 7.07965 2.78792 6.90918 3.01335 6.8C3.28952 5.447 4.02394 4.23068 5.0927 3.35624C6.16145 2.48181 7.49912 2.00279 8.88001 2C10.2133 2 11.2133 2.73333 11.2133 3.66667C11.2133 4.6 10.6133 5.33333 9.88001 5.33333C9.34668 5.33333 8.88001 5.06667 8.88001 4.66667" stroke="#020817" stroke-width="1.33333" stroke-linecap="round" stroke-linejoin="round"/>
</svg>
